<?xml version="1.0" encoding="utf-8"?>
<!-- Svg Vector Icons : http://www.onlinewebfonts.com/icon -->
<!DOCTYPE svg PUBLIC "-//W3C//DTD SVG 1.1//EN" "http://www.w3.org/Graphics/SVG/1.1/DTD/svg11.dtd">
<svg version="1.1" xmlns="http://www.w3.org/2000/svg" xmlns:xlink="http://www.w3.org/1999/xlink" x="0px" y="0px" viewBox="0 0 1000 1000" enable-background="new 0 0 1000 1000" xml:space="preserve">
<metadata> Svg Vector Icons : http://www.onlinewebfonts.com/icon </metadata>
<g><path
    style="stroke:white"
    d="M500,10C229.4,10,10,229.4,10,500s219.4,490,490,490s490-219.4,490-490S770.6,10,500,10z M500,921.2C267.4,921.2,78.8,732.6,78.8,500C78.8,267.4,267.4,78.8,500,78.8c232.6,0,421.2,188.6,421.2,421.2S732.6,921.2,500,921.2z"/><path d="M391.8,681.7c0,0-7.7,7.8-11.3,11.5c-12.5,12.7-12.5,33.3,0,46c8.9,9,21.5,11.3,32.7,7.5l42-37.3l-45.3-46L391.8,681.7z"/><path d="M573.9,399.1l-45.3,46l25.5,25.9c12.5,12.7,12.5,33.3,0,46l-64.8,65.7l-66.8-67.9c-12.4-12.6-12.4-33,0-45.6l64.9-65.9l0.5,0.5l45.3-46l-0.5-0.5l50.8-51.6c12.4-12.6,12.4-33,0-45.6s-32.5-12.6-44.9,0l-50.8,51.6l-50.8-51.5c-12.5-12.7-32.8-12.7-45.3,0c-12.5,12.7-12.5,33.3,0,46l50.8,51.6l-87.3,88.7c-24.8,25.2-24.8,66,0,91.2l194.6,197.7l12.5,7.5c11,3.7,23.6,1.4,32.4-7.5c12.4-12.6,12.4-33,0-45.6c-3.6-3.7-11.2-11.4-11.2-11.4l-48.9-49.6l87.5-88.7c25-25.4,25-66.5,0-91.9L573.9,399.1z"/></g>
</svg>